<svg xmlns="http://www.w3.org/2000/svg" xmlns:xlink="http://www.w3.org/1999/xlink" version="1.1" width="1080" height="1080" viewBox="0 0 1080 1080" xml:space="preserve">
<desc>Created with Fabric.js 4.2.0</desc>
<defs>
</defs>
<rect x="0" y="0" width="100%" height="100%" fill="transparent"></rect>
<g transform="matrix(1 0 0 1 540 540)" id="5d806169-ddee-4735-8953-fe97e5bb97fe"  >
<rect style="stroke: none; stroke-width: 1; stroke-dasharray: none; stroke-linecap: butt; stroke-dashoffset: 0; stroke-linejoin: miter; stroke-miterlimit: 4; fill: rgb(5,5,5); fill-opacity: 0; fill-rule: nonzero; opacity: 1;" vector-effect="non-scaling-stroke"  x="-540" y="-540" rx="0" ry="0" width="1080" height="1080" />
</g>
<g transform="matrix(0 0 0 0 0 0)" id="754f9721-9d5d-4b8f-a6ea-05e5acf785f8"  >
</g>
<g transform="matrix(1 0 0 1 540 488.01)"  >
<path style="stroke: rgb(255,255,255); stroke-width: 30; stroke-dasharray: none; stroke-linecap: round; stroke-dashoffset: 0; stroke-linejoin: round; stroke-miterlimit: 10; fill: none; fill-rule: nonzero; opacity: 1;" vector-effect="non-scaling-stroke"  transform=" translate(-590.29, -504.5)" d="M 44.48908396946565 534.8988549618321 Q 44.519083969465655 534.8988549618321 44.519083969465655 535.7232824427481 Q 44.519083969465655 536.5477099236641 45.34351145038168 536.5477099236641 Q 46.16793893129771 536.5477099236641 48.641221374045806 536.5477099236641 Q 51.1145038167939 536.5477099236641 53.587786259541986 536.5477099236641 Q 56.06106870229008 536.5477099236641 59.3587786259542 536.5477099236641 Q 62.656488549618324 536.5477099236641 65.95419847328245 536.5477099236641 Q 69.25190839694656 536.5477099236641 72.54961832061069 536.5477099236641 Q 75.84732824427482 536.5477099236641 78.3206106870229 537.3721374045801 Q 80.79389312977099 538.1965648854962 84.91603053435115 538.1965648854962 Q 89.03816793893131 538.1965648854962 92.33587786259542 538.1965648854962 Q 95.63358778625954 538.1965648854962 99.7557251908397 538.1965648854962 Q 103.87786259541986 538.1965648854962 108 538.1965648854962 Q 112.12213740458016 538.1965648854962 117.89312977099237 538.1965648854962 Q 123.66412213740459 538.1965648854962 128.61068702290078 538.1965648854962 Q 133.55725190839695 538.1965648854962 139.32824427480915 538.1965648854962 Q 145.09923664122138 538.1965648854962 151.69465648854964 538.1965648854962 Q 158.29007633587787 538.1965648854962 163.23664122137404 538.1965648854962 Q 168.18320610687024 538.1965648854962 172.3053435114504 538.1965648854962 Q 176.42748091603053 538.1965648854962 181.37404580152673 538.1965648854962 Q 186.3206106870229 538.1965648854962 192.0916030534351 538.1965648854962 Q 197.86259541984734 538.1965648854962 202.80916030534354 538.1965648854962 Q 207.7557251908397 538.1965648854962 212.70229007633588 538.1965648854962 Q 217.64885496183206 538.1965648854962 222.59541984732823 538.1965648854962 Q 227.54198473282443 538.1965648854962 232.48854961832063 538.1965648854962 Q 237.4351145038168 538.1965648854962 243.206106870229 538.1965648854962 Q 248.97709923664124 538.1965648854962 255.5725190839695 538.1965648854962 Q 262.1679389312977 538.1965648854962 269.587786259542 539.0209923664122 Q 277.00763358778624 539.8454198473282 284.4274809160305 540.6698473282443 Q 291.8473282442748 541.4942748091603 298.4427480916031 542.3187022900763 Q 305.03816793893134 543.1431297709923 311.63358778625957 543.9675572519084 Q 318.2290076335878 544.7919847328244 324 544.7919847328244 Q 329.7709923664122 544.7919847328244 331.41984732824426 544.7919847328244 Q 333.0687022900764 544.7919847328244 333.8931297709924 544.7919847328244 Q 334.71755725190843 544.7919847328244 335.54198473282446 544.7919847328244 Q 336.3664122137405 544.7919847328244 337.1908396946565 544.7919847328244 Q 338.01526717557255 544.7919847328244 338.8396946564886 544.7919847328244 Q 339.6641221374046 544.7919847328244 339.6641221374046 543.9675572519084 Q 339.6641221374046 543.1431297709923 341.31297709923666 541.4942748091603 Q 342.9618320610687 539.8454198473282 343.78625954198475 538.1965648854962 Q 344.6106870229008 536.5477099236641 347.9083969465649 533.25 Q 351.206106870229 529.9522900763359 352.85496183206106 527.4790076335878 Q 354.5038167938931 525.0057251908397 358.6259541984733 521.7080152671756 Q 362.74809160305347 518.4103053435115 366.0458015267176 515.1125954198474 Q 369.3435114503817 511.81488549618325 373.46564885496184 507.6927480916031 Q 377.587786259542 503.5706106870229 379.23664122137404 500.2729007633588 Q 380.8854961832061 496.9751908396947 385.00763358778624 494.5019083969466 Q 389.12977099236645 492.0286259541985 391.60305343511453 487.90648854961836 Q 394.0763358778626 483.7843511450382 397.37404580152673 480.48664122137404 Q 400.67175572519085 477.1889312977099 404.79389312977105 473.0667938931298 Q 408.9160305343512 468.94465648854964 412.2137404580153 463.17366412213744 Q 415.5114503816794 457.40267175572524 419.63358778625957 451.63167938931304 Q 423.7557251908397 445.8606870229008 427.0534351145038 441.73854961832063 Q 430.35114503816794 437.6164122137405 432.82442748091603 432.66984732824426 Q 435.2977099236641 427.7232824427481 436.9465648854962 425.25 Q 438.5954198473283 422.7767175572519 440.24427480916034 421.9522900763359 Q 441.8931297709924 421.12786259541986 441.8931297709924 420.3034351145038 Q 441.8931297709924 419.4790076335878 442.71755725190843 419.4790076335878 Q 443.54198473282446 419.4790076335878 443.54198473282446 418.65458015267177 Q 443.54198473282446 417.83015267175574 443.54198473282446 418.65458015267177 Q 443.54198473282446 419.4790076335878 445.1908396946565 421.9522900763359 Q 446.8396946564886 424.42557251908397 447.6641221374046 431.84541984732823 Q 448.48854961832063 439.26526717557255 450.9618320610687 445.8606870229008 Q 453.4351145038168 452.456106870229 455.9083969465649 459.0515267175573 Q 458.381679389313 465.6469465648855 459.206106870229 471.4179389312977 Q 460.03053435114504 477.1889312977099 460.8549618320611 482.95992366412213 Q 461.67938931297715 488.7309160305344 462.5038167938932 492.85305343511453 Q 463.3282442748092 496.9751908396947 464.97709923664127 505.219465648855 Q 466.6259541984733 513.4637404580153 468.2748091603054 520.8835877862596 Q 469.92366412213744 528.3034351145038 472.3969465648855 535.7232824427481 Q 474.8702290076336 543.1431297709923 476.51908396946567 550.5629770992366 Q 478.1679389312977 557.982824427481 479.8167938931298 563.7538167938932 Q 481.46564885496184 569.5248091603054 483.9389312977099 575.2958015267176 Q 486.412213740458 581.0667938931298 488.0610687022901 585.1889312977099 Q 489.7099236641222 589.3110687022901 491.35877862595424 594.2576335877862 Q 493.0076335877863 599.2041984732824 493.83206106870233 603.3263358778627 Q 494.65648854961836 607.4484732824428 497.12977099236645 613.219465648855 Q 499.60305343511453 618.9904580152672 500.42748091603056 622.2881679389313 Q 501.2519083969466 625.5858778625955 502.90076335877865 628.8835877862596 Q 504.5496183206107 632.1812977099237 506.19847328244276 636.3034351145038 Q 507.8473282442748 640.425572519084 509.4961832061069 643.7232824427481 Q 511.14503816793894 647.0209923664122 512.793893129771 651.1431297709923 Q 514.4427480916031 655.2652671755726 516.0916030534352 660.2118320610688 Q 517.7404580152672 665.158396946565 520.2137404580153 670.1049618320611 Q 522.6870229007634 675.0515267175573 523.5114503816794 679.1736641221374 Q 524.3358778625955 683.2958015267176 525.9847328244275 686.5935114503817 Q 527.6335877862596 689.8912213740458 529.2824427480916 692.3645038167939 Q 530.9312977099237 694.837786259542 531.7557251908397 697.3110687022901 Q 532.5801526717557 699.7843511450382 532.5801526717557 700.6087786259542 Q 532.5801526717557 701.4332061068702 533.4045801526718 703.0820610687023 Q 534.2290076335878 704.7309160305343 534.2290076335878 706.3797709923665 Q 534.2290076335878 708.0286259541986 535.0534351145038 708.0286259541986 Q 535.8778625954199 708.0286259541986 536.7022900763359 708.0286259541986 Q 537.5267175572519 708.0286259541986 538.3511450381679 708.0286259541986 Q 539.175572519084 708.0286259541986 540 707.2041984732825 Q 540.824427480916 706.3797709923665 543.2977099236641 703.0820610687024 Q 545.7709923664122 699.7843511450382 548.2442748091603 694.837786259542 Q 550.7175572519084 689.8912213740458 554.0152671755725 684.1202290076336 Q 557.3129770992367 678.3492366412214 561.4351145038169 671.7538167938932 Q 565.557251908397 665.158396946565 569.6793893129772 659.3874045801527 Q 573.8015267175573 653.6164122137405 577.9236641221374 645.3721374045801 Q 582.0458015267176 637.1278625954199 586.9923664122138 628.0591603053435 Q 591.9389312977099 618.9904580152672 596.8854961832061 610.7461832061069 Q 601.8320610687023 602.5019083969466 607.6030534351146 592.6087786259543 Q 613.3740458015268 582.7156488549618 619.145038167939 571.9980916030535 Q 624.9160305343512 561.2805343511451 629.8625954198474 549.7385496183206 Q 634.8091603053435 538.1965648854962 639.7557251908397 526.6545801526718 Q 644.7022900763359 515.1125954198474 649.6488549618321 507.6927480916031 Q 654.5954198473282 500.2729007633588 657.8931297709923 492.0286259541985 Q 661.1908396946566 483.7843511450382 664.4885496183207 476.3645038167939 Q 667.7862595419848 468.94465648854964 671.908396946565 462.3492366412214 Q 676.0305343511451 455.7538167938932 678.5038167938932 449.15839694656495 Q 680.9770992366413 442.56297709923666 684.2748091603054 436.79198473282446 Q 687.5725190839695 431.02099236641226 690.0458015267176 426.07442748091603 Q 692.5190839694657 421.12786259541986 694.9923664122138 416.1812977099237 Q 697.4656488549618 411.2347328244275 699.9389312977099 405.4637404580153 Q 702.412213740458 399.69274809160305 704.8854961832061 393.92175572519085 Q 707.3587786259542 388.15076335877865 709.0076335877862 383.2041984732825 Q 710.6564885496183 378.2576335877863 711.4809160305344 373.3110687022901 Q 712.3053435114505 368.3645038167939 713.9541984732825 364.24236641221376 Q 715.6030534351146 360.1202290076336 716.4274809160306 356.8225190839695 Q 717.2519083969466 353.5248091603054 718.0763358778627 351.8759541984733 Q 718.9007633587787 350.22709923664127 719.7251908396947 347.7538167938932 Q 720.5496183206108 345.28053435114504 722.1984732824428 342.80725190839695 Q 723.8473282442749 340.33396946564886 723.8473282442749 337.03625954198475 Q 723.8473282442749 333.73854961832063 725.4961832061069 332.0896946564886 Q 727.145038167939 330.4408396946565 728.793893129771 326.3187022900763 Q 730.4427480916031 322.1965648854962 732.0916030534352 318.89885496183206 Q 733.7404580152672 315.60114503816794 734.5648854961833 313.12786259541986 Q 735.3893129770993 310.65458015267177 736.2137404580153 308.1812977099237 Q 737.0381679389313 305.7080152671756 738.6870229007634 304.05916030534354 Q 740.3358778625955 302.4103053435115 740.3358778625955 301.58587786259545 Q 740.3358778625955 300.7614503816794 740.3358778625955 301.58587786259545 Q 740.3358778625955 302.4103053435115 740.3358778625955 303.2347328244275 Q 740.3358778625955 304.05916030534354 741.9847328244275 309.83015267175574 Q 743.6335877862596 315.60114503816794 745.2824427480916 321.37213740458014 Q 746.9312977099237 327.1431297709924 749.4045801526718 332.9141221374046 Q 751.8778625954199 338.6851145038168 754.3511450381679 345.2805343511451 Q 756.824427480916 351.8759541984733 758.4732824427481 357.6469465648855 Q 760.1221374045801 363.4179389312977 761.7709923664122 369.1889312977099 Q 763.4198473282443 374.95992366412213 765.0687022900763 378.25763358778624 Q 766.7175572519085 381.5553435114504 768.3664122137405 386.5019083969466 Q 770.0152671755726 391.44847328244276 770.8396946564886 396.39503816793894 Q 771.6641221374047 401.3416030534351 772.4885496183207 407.11259541984737 Q 773.3129770992367 412.88358778625957 774.9618320610688 418.65458015267177 Q 776.6106870229008 424.42557251908397 776.6106870229008 429.37213740458014 Q 776.6106870229008 434.3187022900764 779.0839694656489 440.0896946564886 Q 781.557251908397 445.8606870229008 781.557251908397 451.63167938931304 Q 781.557251908397 457.40267175572524 783.2061068702291 462.3492366412214 Q 784.8549618320611 467.2958015267176 786.5038167938932 471.4179389312977 Q 788.1526717557252 475.54007633587787 788.9770992366413 478.01335877862596 Q 789.8015267175573 480.48664122137404 789.8015267175573 481.3110687022901 Q 789.8015267175573 482.13549618320616 790.6259541984733 482.13549618320616 Q 791.4503816793894 482.13549618320616 791.4503816793894 482.9599236641222 Q 791.4503816793894 483.7843511450382 791.4503816793894 487.90648854961836 Q 791.4503816793894 492.0286259541985 792.2748091603054 496.15076335877865 Q 793.0992366412214 500.2729007633588 793.9236641221374 501.92175572519085 Q 794.7480916030535 503.5706106870229 795.5725190839695 506.04389312977105 Q 796.3969465648855 508.51717557251914 797.2213740458016 508.51717557251914 Q 798.0458015267176 508.51717557251914 798.0458015267176 509.34160305343516 Q 798.0458015267176 510.1660305343512 798.0458015267176 510.9904580152672 Q 798.0458015267176 511.81488549618325 798.0458015267176 513.4637404580153 Q 798.0458015267176 515.1125954198474 798.8702290076336 516.7614503816794 Q 799.6946564885496 518.4103053435115 799.6946564885496 519.2347328244275 Q 799.6946564885496 520.0591603053435 799.6946564885496 520.8835877862596 Q 799.6946564885496 521.7080152671756 800.5190839694657 523.3568702290077 Q 801.3435114503817 525.0057251908397 802.1679389312977 525.8301526717557 Q 802.9923664122138 526.6545801526718 803.8167938931298 526.6545801526718 Q 804.6412213740458 526.6545801526718 805.4656488549618 526.6545801526718 Q 806.2900763358779 526.6545801526718 807.1145038167939 526.6545801526718 Q 807.9389312977099 526.6545801526718 811.236641221374 526.6545801526718 Q 814.5343511450382 526.6545801526718 819.4809160305344 525.0057251908397 Q 824.4274809160306 523.3568702290077 830.1984732824428 522.5324427480916 Q 835.969465648855 521.7080152671756 840.9160305343512 520.8835877862596 Q 845.8625954198474 520.0591603053435 850.8091603053435 518.4103053435115 Q 855.7557251908397 516.7614503816794 860.7022900763359 515.9370229007634 Q 865.6488549618321 515.1125954198474 870.5954198473282 515.1125954198474 Q 875.5419847328245 515.1125954198474 880.4885496183207 514.2881679389313 Q 885.4351145038169 513.4637404580153 891.2061068702291 513.4637404580153 Q 896.9770992366413 513.4637404580153 902.7480916030535 513.4637404580153 Q 908.5190839694657 513.4637404580153 914.2900763358779 513.4637404580153 Q 920.0610687022901 513.4637404580153 924.1832061068703 513.4637404580153 Q 928.3053435114505 513.4637404580153 932.4274809160306 513.4637404580153 Q 936.5496183206108 513.4637404580153 941.4961832061069 513.4637404580153 Q 946.4427480916031 513.4637404580153 951.3893129770993 513.4637404580153 Q 956.3358778625955 513.4637404580153 961.2824427480916 513.4637404580153 Q 966.2290076335878 513.4637404580153 970.3511450381679 513.4637404580153 Q 974.4732824427481 513.4637404580153 977.7709923664122 513.4637404580153 Q 981.0687022900764 513.4637404580153 985.1908396946566 513.4637404580153 Q 989.3129770992367 513.4637404580153 994.2595419847329 513.4637404580153 Q 999.2061068702291 513.4637404580153 1003.3282442748092 513.4637404580153 Q 1007.4503816793894 513.4637404580153 1010.7480916030535 514.2881679389313 Q 1014.0458015267176 515.1125954198474 1018.9923664122138 515.1125954198474 Q 1023.9389312977099 515.1125954198474 1027.2366412213742 515.1125954198474 Q 1030.5343511450383 515.1125954198474 1033.8320610687024 515.1125954198474 Q 1037.1297709923665 515.1125954198474 1042.0763358778627 515.1125954198474 Q 1047.0229007633588 515.1125954198474 1050.320610687023 515.1125954198474 Q 1053.618320610687 515.1125954198474 1056.9160305343512 515.1125954198474 Q 1060.2137404580153 515.1125954198474 1063.5114503816794 515.1125954198474 Q 1066.8091603053435 515.1125954198474 1068.4580152671756 515.1125954198474 Q 1070.1068702290077 515.1125954198474 1073.4045801526718 515.1125954198474 Q 1076.7022900763359 515.1125954198474 1079.175572519084 515.9370229007634 Q 1081.648854961832 516.7614503816794 1084.9465648854962 517.5858778625955 Q 1088.2442748091603 518.4103053435115 1092.3664122137404 518.4103053435115 Q 1096.4885496183206 518.4103053435115 1100.6106870229007 518.4103053435115 Q 1104.7328244274809 518.4103053435115 1108.8549618320612 518.4103053435115 Q 1112.9770992366414 518.4103053435115 1116.2748091603055 518.4103053435115 Q 1119.5725190839696 518.4103053435115 1122.0458015267177 518.4103053435115 Q 1124.5190839694658 518.4103053435115 1126.1679389312978 518.4103053435115 Q 1127.81679389313 518.4103053435115 1128.641221374046 519.2347328244275 Q 1129.465648854962 520.0591603053435 1131.93893129771 520.0591603053435 Q 1134.4122137404581 520.0591603053435 1135.2366412213742 520.0591603053435 L 1136.0910687022902 520.0591603053435" stroke-linecap="round" />
</g>
</svg>
