<svg width="358" height="221" viewBox="0 0 358 221" fill="none" xmlns="http://www.w3.org/2000/svg">
<g filter="url(#filter0_i_376_7317)">
<rect width="358" height="221" rx="70" fill="white"/>
</g>
<path d="M18 20.5L180 99L339.5 20.5" stroke="url(#paint0_linear_376_7317)" stroke-width="21" stroke-miterlimit="3.86874" stroke-linecap="round" stroke-linejoin="round"/>
<path d="M175.974 66.9771C178.046 64.4149 181.954 64.4149 184.026 66.9771C185.529 68.8345 188.107 69.423 190.267 68.4014C193.246 66.9923 196.766 68.6875 197.522 71.8952C198.07 74.2207 200.137 75.8695 202.526 75.8862C205.822 75.9092 208.258 78.9638 207.547 82.1818C207.031 84.5147 208.179 86.8974 210.324 87.949C213.283 89.3995 214.153 93.2086 212.116 95.7995C210.639 97.6777 210.639 100.322 212.116 102.201C214.153 104.791 213.283 108.6 210.324 110.051C208.179 111.103 207.031 113.485 207.547 115.818C208.258 119.036 205.822 122.091 202.526 122.114C200.137 122.13 198.07 123.779 197.522 126.105C196.766 129.313 193.246 131.008 190.267 129.599C188.107 128.577 185.529 129.166 184.026 131.023C181.954 133.585 178.046 133.585 175.974 131.023C174.471 129.166 171.893 128.577 169.733 129.599C166.754 131.008 163.234 129.313 162.478 126.105C161.93 123.779 159.863 122.13 157.474 122.114C154.178 122.091 151.742 119.036 152.453 115.818C152.969 113.485 151.821 111.103 149.676 110.051C146.717 108.6 145.847 104.791 147.884 102.201C149.361 100.322 149.361 97.6777 147.884 95.7995C145.847 93.2086 146.717 89.3995 149.676 87.949C151.821 86.8974 152.969 84.5147 152.453 82.1818C151.742 78.9638 154.178 75.9092 157.474 75.8862C159.863 75.8695 161.93 74.2207 162.478 71.8952C163.234 68.6875 166.754 66.9923 169.733 68.4014C171.893 69.423 174.471 68.8345 175.974 66.9771Z" fill="url(#paint1_linear_376_7317)"/>
<path d="M179.962 90.6961C177.046 87.9822 173.387 87.9327 170.461 89.4202C167.529 90.9113 165.365 93.93 165.431 97.3149C165.465 99.0394 165.774 100.463 166.372 101.756C166.969 103.05 167.861 104.224 169.074 105.441C170.739 107.113 172.987 108.847 175.876 111.075C177.175 112.077 178.605 113.179 180.169 114.421C181.623 113.25 182.956 112.203 184.173 111.248C187.115 108.937 189.38 107.158 191.041 105.443C192.22 104.227 193.083 103.053 193.661 101.759C194.238 100.466 194.536 99.0414 194.569 97.3155C194.634 93.9287 192.5 90.9102 189.611 89.4197C186.729 87.9331 183.124 87.9823 180.251 90.695V90.695C180.17 90.7714 180.043 90.7719 179.962 90.6961V90.6961ZM179.962 90.6961L179.97 90.6863M189.803 89.0234C186.835 87.4925 183.106 87.5116 180.105 90.2348C177.062 87.5117 173.281 87.4927 170.271 89.0228C167.221 90.5736 164.932 93.7329 165.002 97.3237C165.036 99.1011 165.356 100.589 165.984 101.946C166.61 103.303 167.538 104.518 168.774 105.758C170.46 107.452 172.743 109.212 175.648 111.453C176.98 112.48 178.425 113.607 180.022 114.876V114.876C180.11 114.948 180.236 114.948 180.324 114.876V114.876C181.811 113.677 183.156 112.604 184.405 111.623C187.362 109.3 189.662 107.493 191.345 105.757C192.547 104.516 193.446 103.3 194.051 101.944C194.657 100.587 194.964 99.1006 194.998 97.3243C195.067 93.735 192.811 90.5752 189.803 89.0234Z" stroke="white" stroke-width="1.2"/>
<path d="M181.5 101.742L181.194 101.226L180.9 101.401V101.742H181.5ZM178.5 101.742H179.1V101.401L178.806 101.226L178.5 101.742ZM182.4 99.077C182.4 100 181.912 100.8 181.194 101.226L181.806 102.258C182.882 101.62 183.6 100.431 183.6 99.077H182.4ZM180 96.6C181.311 96.6 182.4 97.6946 182.4 99.077H183.6C183.6 97.0607 182.002 95.4 180 95.4V96.6ZM177.6 99.077C177.6 97.6946 178.689 96.6 180 96.6V95.4C177.998 95.4 176.4 97.0607 176.4 99.077H177.6ZM178.806 101.226C178.088 100.8 177.6 100 177.6 99.077H176.4C176.4 100.431 177.118 101.62 178.194 102.258L178.806 101.226ZM179.1 104.5V101.742H177.9V104.5H179.1ZM180 105.4C179.503 105.4 179.1 104.997 179.1 104.5H177.9C177.9 105.66 178.84 106.6 180 106.6V105.4ZM180.9 104.5C180.9 104.997 180.497 105.4 180 105.4V106.6C181.16 106.6 182.1 105.66 182.1 104.5H180.9ZM180.9 101.742V104.5H182.1V101.742H180.9Z" fill="white"/>
<path d="M17 200.5L75 80" stroke="url(#paint2_linear_376_7317)" stroke-width="21" stroke-miterlimit="3.86874" stroke-linecap="square" stroke-linejoin="round"/>
<path d="M341 200.5L283 80" stroke="url(#paint3_linear_376_7317)" stroke-width="21" stroke-miterlimit="3.86874" stroke-linecap="square" stroke-linejoin="round"/>
<defs>
<filter id="filter0_i_376_7317" x="0" y="-14" width="358" height="235" filterUnits="userSpaceOnUse" color-interpolation-filters="sRGB">
<feFlood flood-opacity="0" result="BackgroundImageFix"/>
<feBlend mode="normal" in="SourceGraphic" in2="BackgroundImageFix" result="shape"/>
<feColorMatrix in="SourceAlpha" type="matrix" values="0 0 0 0 0 0 0 0 0 0 0 0 0 0 0 0 0 0 127 0" result="hardAlpha"/>
<feOffset dy="-14"/>
<feGaussianBlur stdDeviation="7"/>
<feComposite in2="hardAlpha" operator="arithmetic" k2="-1" k3="1"/>
<feColorMatrix type="matrix" values="0 0 0 0 0 0 0 0 0 0 0 0 0 0 0 0 0 0 0.25 0"/>
<feBlend mode="normal" in2="shape" result="effect1_innerShadow_376_7317"/>
</filter>
<linearGradient id="paint0_linear_376_7317" x1="180.5" y1="17" x2="180.5" y2="101" gradientUnits="userSpaceOnUse">
<stop stop-color="#6179F8"/>
<stop offset="0.567708" stop-color="#969BB1"/>
<stop offset="1" stop-color="#A2A2A2" stop-opacity="0.34"/>
</linearGradient>
<linearGradient id="paint1_linear_376_7317" x1="180" y1="62" x2="180" y2="136" gradientUnits="userSpaceOnUse">
<stop stop-color="#6179F8"/>
<stop offset="1" stop-color="#A2A2A2"/>
</linearGradient>
<linearGradient id="paint2_linear_376_7317" x1="104" y1="61" x2="5.00006" y2="215.5" gradientUnits="userSpaceOnUse">
<stop stop-color="#A2A2A2"/>
<stop offset="1" stop-color="#A2A2A2" stop-opacity="0"/>
</linearGradient>
<linearGradient id="paint3_linear_376_7317" x1="254" y1="61" x2="353" y2="215.5" gradientUnits="userSpaceOnUse">
<stop stop-color="#A2A2A2"/>
<stop offset="1" stop-color="#A2A2A2" stop-opacity="0"/>
</linearGradient>
</defs>
</svg>
